<svg height="512pt" viewBox="0 0 512 512" width="512pt" xmlns="http://www.w3.org/2000/svg"><path d="m480.941406 314.917969c-.003906-.046875.019532-.089844.015625-.132813-.003906-.042968-.027343-.074218-.03125-.113281-.828125-215.851563-195.667969-314.671875-254.925781-314.671875-6.460938 0-12.1875 4.132812-14.222656 10.253906-2.050782 6.125.058594 12.875 5.226562 16.742188 34.277344 25.722656 57.058594 77.433594 60.925782 138.355468 6.066406 95.46875-33.992188 138.289063-51.929688 182.777344l239.582031-17.214844c.144531.003907.269531.085938.417969.085938.308594 0 .570312-.15625.875-.175781l.191406-.015625c7.5625-3.144532 13.9375-2.75 13.875-15.890625zm0 0" fill="#0095ff"/><path d="m217.402344 62.710938c-64.03125 44.824218-149.503906 151.996093-185.832032 279.171874-1.332031 4.703126-.308593 9.773438 2.785157 13.582032 2.855469 3.515625 7.148437 5.535156 11.644531 5.535156.351562 0 .71875-.015625 1.070312-.042969l178.929688-12.828125v-287.851562c-2.984375-.003906-5.984375.601562-8.597656 2.433594zm0 0" fill="#3aaaff"/><path d="m136 0c-8.289062 0-15 6.710938-15 15 0 41.351562 33.648438 75 75 75h30v-90zm0 0" fill="#ff4b00"/><path d="m241 15v378.101562c0 8.398438-6.597656 15-15 15s-15-6.601562-15-15v-378.101562c0-8.402344 6.597656-15 15-15s15 6.597656 15 15zm0 0" fill="#725d57"/><path d="m226 408.101562v-408.101562c8.402344 0 15 6.597656 15 15v378.101562c0 8.398438-6.597656 15-15 15zm0 0" fill="#53433f"/><path d="m477.398438 385.898438-81 94.902343c-7.199219 3-14.097657 6.597657-20.398438 11.398438-35.097656-26.398438-83.699219-26.699219-119.097656-.597657h-2.101563c-9-6.601562-18.601562-11.402343-28.800781-15-25.5-7.800781-53.699219-5.402343-77.402344 7.5l-29.097656-1.800781c-18.601562-9-39.601562-11.699219-59.699219-8.402343l-27.601562-61.601563c-1.800781-4.496094-1.5-9.898437.902343-14.097656 2.398438-4.199219 6.898438-6.898438 11.699219-7.199219l181.199219-12.898438 238.800781-17.101562c6.300781-.601562 12 3 14.699219 8.398438 2.699219 5.402343 1.800781 11.699218-2.101562 16.5zm0 0" fill="#ede9e8"/><path d="m477.398438 385.898438-81 94.902343c-7.199219 3-14.097657 6.597657-20.398438 11.398438-35.097656-26.398438-83.699219-26.699219-119.097656-.597657h-2.101563c-9-6.601562-18.601562-11.402343-28.800781-15v-98.5l238.800781-17.101562c6.300781-.601562 12 3 14.699219 8.398438 2.699219 5.402343 1.800781 11.699218-2.101562 16.5zm0 0" fill="#d2c5c2"/><path d="m507.5 507.5c-2.699219 3-6.601562 4.5-10.5 4.5s-7.800781-1.5-10.5-4.5c-26.398438-26.402344-73.601562-26.402344-100 0-5.699219 6-15.296875 6-21 0-27.300781-27-71.699219-27-99 0-5.699219 6-15.296875 6-21 0-5.699219-5.699219-12.300781-10.199219-19.5-13.5-26.101562-12.300781-58.199219-7.800781-79.5 13.5-5.699219 6-15.300781 6-21 0-26.398438-26.402344-72.601562-26.402344-99 0-5.699219 6-16.300781 6-22 0-6-5.699219-6-15.300781 0-21 35.398438-35.699219 92.5-38.699219 131.5-9.300781 26.097656-19.800781 60-24.898438 90-15.300781 10.496094 3.300781 20.699219 8.402343 30 15.300781 35.398438-26.699219 84.597656-26.699219 120 0 39-29.398438 96.097656-26.398438 131.496094 9.300781 6.003906 5.699219 6.003906 15.300781.003906 21zm0 0" fill="#a8ebfa"/><path d="m507.5 507.5c-2.699219 3-6.601562 4.5-10.5 4.5s-7.800781-1.5-10.5-4.5c-26.398438-26.402344-73.601562-26.402344-100 0-5.699219 6-15.296875 6-21 0-27.300781-27-71.699219-27-99 0-5.699219 6-15.296875 6-21 0-5.699219-5.699219-12.300781-10.199219-19.5-13.5v-32.101562c10.5 3.300781 20.699219 8.402343 30 15.300781 35.398438-26.699219 84.601562-26.699219 120 0 39-29.398438 96.097656-26.398438 131.5 9.300781 6 5.699219 6 15.300781 0 21zm0 0" fill="#76e2f8"/></svg>